<svg width="29" height="30" viewBox="0 0 29 30" fill="none" xmlns="http://www.w3.org/2000/svg">
<path d="M28.2718 6.94812C28.2705 6.94682 28.2692 6.94551 28.2692 6.94421C28.04 6.59263 27.7249 6.31269 27.3603 6.13688L15.3325 0.236989C14.701 -0.0781263 13.9444 -0.0794296 13.3116 0.235687L1.28912 6.13558C0.92191 6.31136 0.606798 6.59133 0.378923 6.94161C0.378923 6.94291 0.37762 6.94291 0.37762 6.94291C0.37762 6.94421 0.376318 6.94421 0.376318 6.94551L0.373714 6.94812C0.130215 7.31663 0 7.74632 0 8.19167V21.8082C0 22.6754 0.505219 23.4814 1.28522 23.863L13.3157 29.7695C13.636 29.9232 13.9746 30 14.3222 30C14.6673 30 15.0149 29.9206 15.3287 29.7682L27.3605 23.8643C28.1405 23.4828 28.6458 22.6755 28.6458 21.8096V8.1917C28.6458 7.74768 28.5166 7.31793 28.2718 6.94812ZM1.65344 6.88431L13.6812 0.981754C14.0836 0.782526 14.5615 0.782526 14.9638 0.983056L26.9983 6.88561C27.0882 6.92859 27.1715 6.98067 27.2483 7.04057L23.8679 8.6995L14.3232 13.3833L1.39933 7.0421C1.47746 6.9809 1.56099 6.92859 1.65344 6.88431ZM1.65214 23.1153C1.15472 22.8718 0.834408 22.3587 0.834408 21.8092V8.19136C0.834408 8.0325 0.860451 7.87755 0.909931 7.73041L13.9051 14.107V29.1076C13.8283 29.0841 13.7514 29.0568 13.6785 29.0203L1.65214 23.1153ZM27.8121 21.8079C27.8121 22.3587 27.4918 22.8705 26.9931 23.114L14.964 29.0192C14.8911 29.0543 14.8168 29.083 14.7387 29.1064L14.74 14.1072L27.7365 7.73062C27.786 7.87776 27.812 8.03271 27.812 8.19157L27.8121 21.8079Z" fill="white"/>
</svg>
